<?xml version="1.0" encoding="UTF-8"?>
<svg id="Layer_1" data-name="Layer 1" xmlns="http://www.w3.org/2000/svg" viewBox="0 0 544.22 544.22">
  <defs>
    <style>
      .cls-1 {
        fill: #951719;
        stroke-width: 0px;
      }
    </style>
  </defs>
  <path class="cls-1" d="m300.98,230.25c6.19,0,11.34-5.15,11.34-11.34,0-6.53-5.15-11.68-11.34-11.34-6.19,0-11.34,5.15-11.34,11.34s5.15,11.34,11.34,11.34Z"/>
  <path class="cls-1" d="m252.87,262.89c-.69.69-.69,1.37,0,2.06,4.12,4.81,11,11,19.24,11s15.46-6.19,19.24-11c.34-.34.34-1.37,0-2.06-.34-.69-1.37-1.03-2.06-.69-4.12,1.03-9.97,2.41-17.18,2.41s-13.06-1.03-17.18-2.41c-.69-.34-1.72,0-2.06.69Z"/>
  <circle class="cls-1" cx="243.59" cy="390.38" r="14.43" transform="translate(-210.29 466.03) rotate(-67.5)"/>
  <circle class="cls-1" cx="243.59" cy="218.91" r="11.34" transform="translate(-51.87 360.19) rotate(-67.5)"/>
  <circle class="cls-1" cx="300.63" cy="390.38" r="14.43"/>
  <path class="cls-1" d="m272.11,0C2.1,0,0,121.83,0,272.11s2.1,272.11,272.11,272.11,272.11-121.83,272.11-272.11S542.12,0,272.11,0Zm-74.57,139.98c0-7.56,4.81-14.09,12.03-16.84,13.4-4.81,37.11-11.34,62.54-11.34s49.14,6.53,62.54,11.34c7.22,2.41,12.03,9.28,12.03,16.84v26.64s-35.05-16.15-74.57-16.15-74.57,16.15-74.57,16.15v-26.64Zm-2.41,59.69c0-4.81,2.41-11.12,2.41-11.12v-8.18s35.05-16.15,74.57-16.15,74.57,16.15,74.57,16.15v8.18s2.06,1.15,3.78,12.15c4.47,4.12,7.56,11,7.22,22.34,0,17.18-5.84,23.71-14.43,27.15-7.56,19.24-19.93,35.05-34.02,45.7-12.03,9.28-25.08,14.43-37.11,14.43s-25.43-5.5-37.45-14.43c-14.09-10.65-26.46-26.46-34.02-45.36-8.25-3.44-14.43-9.97-14.43-27.15,0-12.71,3.78-19.59,8.93-23.71Zm220.26,194.27c0,12.37-65.98,38.49-143.29,38.49s-143.29-26.12-143.29-38.49v-17.99c0-40.2,58.76-34.36,91.75-53.95v-19.93c2.06,1.72,3.78,3.78,5.84,5.15,9.28,6.87,18.9,11.68,28.52,14.43v6.19c0,9.62,7.56,17.18,17.18,17.18s17.18-7.56,17.18-17.18v-6.19c9.28-2.75,18.9-7.56,28.18-14.43,2.06-1.37,4.12-3.44,6.19-5.15v19.93c32.99,19.24,91.75,13.4,91.75,53.95v17.99Z"/>
</svg>